<?xml version="1.0" standalone="no"?>
<!DOCTYPE svg PUBLIC "-//W3C//DTD SVG 20010904//EN"
 "http://www.w3.org/TR/2001/REC-SVG-20010904/DTD/svg10.dtd">
<svg version="1.0" xmlns="http://www.w3.org/2000/svg"
 width="1237.000000pt" height="1280.000000pt" viewBox="0 0 1237.000000 1280.000000"
 preserveAspectRatio="xMidYMid meet">
<metadata>
Created by potrace 1.15, written by Peter Selinger 2001-2017
</metadata>
<g transform="translate(0.000000,1280.000000) scale(0.100000,-0.100000)"
fill="#000000" stroke="none">
<path d="M11610 12793 c-594 -35 -1071 -202 -1418 -496 -95 -80 -180 -175
-498 -557 -1378 -1655 -2775 -3625 -4432 -6253 -150 -237 -186 -284 -250 -327
-68 -45 -116 -56 -151 -33 -109 69 -252 381 -481 1048 -80 233 -119 321 -186
422 -154 232 -336 288 -657 203 -235 -62 -563 -236 -791 -420 -152 -123 -268
-290 -296 -427 -44 -207 84 -730 431 -1767 326 -974 562 -1447 776 -1554 90
-45 268 -62 688 -63 434 -2 609 29 800 140 111 64 163 126 337 395 1991 3091
4030 5887 6333 8686 364 442 445 551 514 688 44 88 50 146 19 192 -47 69 -125
102 -279 120 -78 9 -330 11 -459 3z"/>
<path d="M5720 12079 c-1087 -59 -2136 -410 -3038 -1016 -1474 -991 -2441
-2576 -2642 -4330 -110 -966 13 -1944 360 -2848 608 -1588 1875 -2860 3466
-3479 1357 -528 2917 -539 4269 -31 690 260 1302 622 1855 1099 237 204 560
539 762 791 695 864 1147 1927 1282 3015 32 252 37 341 43 650 7 402 -13 711
-67 1060 -154 984 -534 1883 -1143 2707 -50 68 -94 123 -97 123 -5 0 -269
-309 -543 -636 l-26 -31 89 -118 c624 -816 909 -1748 910 -2966 0 -604 -77
-1094 -262 -1659 -303 -929 -905 -1788 -1689 -2411 -728 -580 -1604 -950
-2539 -1073 -313 -42 -808 -54 -1085 -28 -907 86 -1680 350 -2395 817 -1511
986 -2391 2656 -2346 4455 32 1334 561 2572 1501 3516 690 693 1535 1164 2492
1388 596 140 1315 171 1993 85 477 -60 975 -216 1378 -430 63 -34 115 -59 116
-57 1 1 121 159 266 350 144 190 262 350 262 354 0 21 -373 201 -622 301 -767
308 -1664 450 -2550 402z"/>
</g>
</svg>
